<?xml version="1.0" encoding="UTF-8" standalone="no"?>
<svg
   width="128"
   height="128"
   viewBox="0 0 33.866666 33.866668"
   version="1.1"
   id="flutter_web_emulator_icon"
   xmlns="http://www.w3.org/2000/svg">
  <defs
     id="defs2" />
  <g
     id="layer1">
    <!-- Phone frame -->
    <rect
       style="fill:#333333;stroke-width:0.264583;stroke-linecap:round;stroke-linejoin:round"
       id="phone-frame"
       width="22.225"
       height="33.866665"
       x="5.8208332"
       y="0"
       ry="3.175" />
    <!-- Phone screen -->
    <rect
       style="fill:#ffffff;stroke-width:0.264583;stroke-linecap:round;stroke-linejoin:round"
       id="phone-screen"
       width="19.05"
       height="27.516666"
       x="7.4083333"
       y="3.175"
       ry="1.5875" />
    <!-- Flutter logo -->
    <path
       style="fill:#0175C2;stroke-width:0.264583;stroke-linecap:round;stroke-linejoin:round"
       d="m 16.933333,10.583333 -5.291666,5.291667 2.116666,2.116666 7.408334,-7.408333 h -4.233334 z"
       id="flutter-logo-1" />
    <path
       style="fill:#0175C2;stroke-width:0.264583;stroke-linecap:round;stroke-linejoin:round"
       d="m 13.758333,18.520833 2.116667,2.116667 h 4.233333 l -4.233333,-4.233334 z"
       id="flutter-logo-2" />
    <path
       style="fill:#54C5F8;stroke-width:0.264583;stroke-linecap:round;stroke-linejoin:round"
       d="m 11.641667,15.875 2.116666,-2.116667 2.116667,2.116667 -2.116667,2.116666 z"
       id="flutter-logo-3" />
    <!-- Web symbol -->
    <circle
       style="fill:#4285F4;stroke-width:0.264583;stroke-linecap:round;stroke-linejoin:round"
       id="web-circle"
       cx="21.166666"
       cy="21.166666"
       r="3.175" />
    <path
       style="fill:#ffffff;stroke-width:0.264583;stroke-linecap:round;stroke-linejoin:round"
       d="m 21.166666,19.05 c -1.058333,0 -2.116666,0.79375 -2.116666,2.116666 0,1.322917 1.058333,2.116667 2.116666,2.116667 1.058334,0 2.116667,-0.79375 2.116667,-2.116667 0,-1.322916 -1.058333,-2.116666 -2.116667,-2.116666 z m 0,0.529167 c 0.264584,0 0.529167,0.264583 0.529167,0.529166 0,0.264584 -0.264583,0.529167 -0.529167,0.529167 -0.264583,0 -0.529166,-0.264583 -0.529166,-0.529167 0,-0.264583 0.264583,-0.529166 0.529166,-0.529166 z m 0,3.175 c -0.79375,0 -1.322916,-0.529167 -1.322916,-1.058334 h 2.645833 c 0,0.529167 -0.529167,1.058334 -1.322917,1.058334 z"
       id="web-symbol" />
    <!-- Phone buttons -->
    <rect
       style="fill:#666666;stroke-width:0.264583;stroke-linecap:round;stroke-linejoin:round"
       id="home-button"
       width="3.175"
       height="1.0583333"
       x="15.345833"
       y="31.75"
       ry="0.52916664" />
  </g>
</svg>
